{
	"asset":{
		"generator":"Khronos glTF Blender I/O v4.5.48",
		"version":"2.0"
	},
	"scene":0,
	"scenes":[
		{
			"name":"Scene",
			"nodes":[
				0,
				1
			]
		}
	],
	"nodes":[
		{
			"mesh":0,
			"name":"lh.pial"
		},
		{
			"mesh":1,
			"name":"rh.pial"
		}
	],
	"materials":[
		{
			"doubleSided":true,
			"name":"Material",
			"pbrMetallicRoughness":{
				"baseColorFactor":[
					0.8010008931159973,
					0.37204545736312866,
					0.3034430146217346,
					1
				],
				"metallicFactor":0,
				"roughnessFactor":0.5
			}
		}
	],
	"meshes":[
		{
			"name":"lh.pial",
			"primitives":[
				{
					"attributes":{
						"POSITION":0,
						"NORMAL":1
					},
					"indices":2,
					"material":0
				}
			]
		},
		{
			"name":"rh.pial",
			"primitives":[
				{
					"attributes":{
						"POSITION":3,
						"NORMAL":4,
						"TEXCOORD_0":5
					},
					"indices":6,
					"material":0
				}
			]
		}
	],
	"accessors":[
		{
			"bufferView":0,
			"componentType":5126,
			"count":866824,
			"max":[
				2.782180070877075,
				60.284400939941406,
				99.88980102539062
			],
			"min":[
				-69.70120239257812,
				-56.47090148925781,
				-69.47930145263672
			],
			"type":"VEC3"
		},
		{
			"bufferView":1,
			"componentType":5126,
			"count":866824,
			"type":"VEC3"
		},
		{
			"bufferView":2,
			"componentType":5125,
			"count":866928,
			"type":"SCALAR"
		},
		{
			"bufferView":3,
			"componentType":5126,
			"count":870374,
			"max":[
				68.92019653320312,
				59.49700164794922,
				96.69450378417969
			],
			"min":[
				-3.1131699085235596,
				-58.9192008972168,
				-70.15969848632812
			],
			"type":"VEC3"
		},
		{
			"bufferView":4,
			"componentType":5126,
			"count":870374,
			"type":"VEC3"
		},
		{
			"bufferView":5,
			"componentType":5126,
			"count":870374,
			"type":"VEC2"
		},
		{
			"bufferView":6,
			"componentType":5125,
			"count":870414,
			"type":"SCALAR"
		}
	],
	"bufferViews":[
		{
			"buffer":0,
			"byteLength":10401888,
			"byteOffset":0,
			"target":34962
		},
		{
			"buffer":0,
			"byteLength":10401888,
			"byteOffset":10401888,
			"target":34962
		},
		{
			"buffer":0,
			"byteLength":3467712,
			"byteOffset":20803776,
			"target":34963
		},
		{
			"buffer":0,
			"byteLength":10444488,
			"byteOffset":24271488,
			"target":34962
		},
		{
			"buffer":0,
			"byteLength":10444488,
			"byteOffset":34715976,
			"target":34962
		},
		{
			"buffer":0,
			"byteLength":6962992,
			"byteOffset":45160464,
			"target":34962
		},
		{
			"buffer":0,
			"byteLength":3481656,
			"byteOffset":52123456,
			"target":34963
		}
	],
	"buffers":[
		{
			"byteLength":55605112,
			"uri":"brain.bin"
		}
	]
}
