{
	"asset":{
		"generator":"Khronos glTF Blender I/O v4.5.48",
		"version":"2.0"
	},
	"scene":0,
	"scenes":[
		{
			"name":"Scene",
			"nodes":[
				0,
				1,
				2,
				3,
				4,
				5,
				6,
				7,
				8,
				9,
				10,
				11,
				12,
				13,
				14,
				15,
				16,
				17,
				18,
				19,
				20,
				21,
				22,
				23,
				24,
				25,
				26,
				27,
				28,
				29,
				30,
				31,
				32,
				33,
				34,
				35,
				36,
				37,
				38,
				39,
				40,
				41,
				42,
				43,
				44,
				45,
				46,
				47,
				48,
				49,
				50,
				51,
				52,
				53
			]
		}
	],
	"nodes":[
		{
			"name":"Letter 10.07 Latin I dotted"
		},
		{
			"name":"Letter 10.06 Arabic yodh aleph"
		},
		{
			"name":"Letter 10.05 Greek pi"
		},
		{
			"name":"Letter 09.07 Cyrillic De"
		},
		{
			"name":"Letter 09.06 Latin V"
		},
		{
			"name":"Letter 09.05 Tai Le wa"
		},
		{
			"name":"Letter 08.10 Classical Chinese"
		},
		{
			"name":"Letter 08.09 Latin A umlaut"
		},
		{
			"name":"Letter 08.08 Sinhala va + i"
		},
		{
			"name":"Letter 08.07 Tamil va + i"
		},
		{
			"name":"Letter 08.06 Tibetan wa + i"
		},
		{
			"name":"Letter 08.05 Cherokee wi"
		},
		{
			"name":"Letter 08.04 Limbu wa + i"
		},
		{
			"name":"Letter 08.03 Mongolian wa"
		},
		{
			"name":"Letter 08.02 Latin U"
		},
		{
			"name":"Letter 08.01 Tagalog Wi"
		},
		{
			"name":"Letter 07.10 Cyrillic u"
		},
		{
			"name":"Letter 07.08 Thai wo waen + sara i"
		},
		{
			"name":"Letter 07.07 Hebrew vav"
		},
		{
			"name":"Letter 07.06 Kannada va + i"
		},
		{
			"name":"Letter 07.05 Georgian vin"
		},
		{
			"name":"Letter 07.04 Inuktitut short u"
		},
		{
			"name":"Letter 07.03 Malayalam va + short i"
		},
		{
			"name":"Letter 07.02 Glagolitic v\u011bd\u011b"
		},
		{
			"name":"Letter 06.10 Laotian w + i"
		},
		{
			"name":"Letter 06.09 Tana vaavu"
		},
		{
			"name":"Letter 07.09 Latin H"
		},
		{
			"name":"Letter 06.08 Hangul wi"
		},
		{
			"name":"Letter 06.07 Cyrillic i"
		},
		{
			"name":"Letter 06.06 Trad Chinese GungSeo"
		},
		{
			"name":"Letter 06.05 Devanagari va + i"
		},
		{
			"name":"Letter 06.04 Burmese v + i"
		},
		{
			"name":"Letter 06.03 Oriya wa + i"
		},
		{
			"name":"Letter 06.02 Lontara w"
		},
		{
			"name":"Letter 06.01 Syriac Waw"
		},
		{
			"name":"Letter 07.01 Cyrillic ve"
		},
		{
			"name":"Letter 05.04 Latin \u00c9-acute"
		},
		{
			"name":"Letter 05.03 Gothic vinja"
		},
		{
			"name":"Letter 05.02 Gujarati va"
		},
		{
			"name":"Letter 05.01 Javanese Wa + i"
		},
		{
			"name":"Letter 05.10 Cyrillic Ya"
		},
		{
			"name":"Letter 05.09 Gurmukh\u012b vava + sihari"
		},
		{
			"name":"Letter 05.08 Arabic Waw"
		},
		{
			"name":"Letter 05.07 Wikipedia W"
		},
		{
			"name":"Letter 05.06 Greek Omega"
		},
		{
			"name":"Letter 05.05 Bengali short u"
		},
		{
			"name":"Letter 04.08 Geez We"
		},
		{
			"name":"Letter 04.07 Katakana u + small i"
		},
		{
			"name":"Letter 04.04 Telugu va + (i)"
		},
		{
			"name":"Letter 04.05 Khmer vo + i"
		},
		{
			"name":"Letter 03.05 Armenian vev"
		},
		{
			"mesh":0,
			"name":"Shell 08.03"
		},
		{
			"name":"Plane.001"
		},
		{
			"name":"Plane"
		}
	],
	"animations":[
		{
			"channels":[
				{
					"sampler":0,
					"target":{
						"node":51,
						"path":"translation"
					}
				},
				{
					"sampler":1,
					"target":{
						"node":51,
						"path":"rotation"
					}
				},
				{
					"sampler":2,
					"target":{
						"node":51,
						"path":"scale"
					}
				}
			],
			"name":"Shell 08.03Action",
			"samplers":[
				{
					"input":16,
					"interpolation":"LINEAR",
					"output":17
				},
				{
					"input":16,
					"interpolation":"LINEAR",
					"output":18
				},
				{
					"input":19,
					"interpolation":"STEP",
					"output":20
				}
			]
		}
	],
	"materials":[
		{
			"doubleSided":true,
			"name":"Material.DiffuseGlossy"
		},
		{
			"doubleSided":true,
			"name":"Material.DiffuseGlossy.001"
		},
		{
			"doubleSided":true,
			"name":"Material.DiffuseGlossy.002"
		},
		{
			"doubleSided":true,
			"name":"Material.DiffuseGlossy.003"
		}
	],
	"meshes":[
		{
			"name":"Icosphere.009",
			"primitives":[
				{
					"attributes":{
						"POSITION":0,
						"NORMAL":1,
						"TEXCOORD_0":2
					},
					"indices":3,
					"material":0
				},
				{
					"attributes":{
						"POSITION":4,
						"NORMAL":5,
						"TEXCOORD_0":6
					},
					"indices":7,
					"material":1
				},
				{
					"attributes":{
						"POSITION":8,
						"NORMAL":9,
						"TEXCOORD_0":10
					},
					"indices":11,
					"material":2
				},
				{
					"attributes":{
						"POSITION":12,
						"NORMAL":13,
						"TEXCOORD_0":14
					},
					"indices":15,
					"material":3
				}
			]
		}
	],
	"accessors":[
		{
			"bufferView":0,
			"componentType":5126,
			"count":144692,
			"max":[
				5.704999923706055,
				4.722836971282959,
				5.704870700836182
			],
			"min":[
				-5.704999923706055,
				-5.704999923706055,
				-5.704944610595703
			],
			"type":"VEC3"
		},
		{
			"bufferView":1,
			"componentType":5126,
			"count":144692,
			"type":"VEC3"
		},
		{
			"bufferView":2,
			"componentType":5126,
			"count":144692,
			"type":"VEC2"
		},
		{
			"bufferView":3,
			"componentType":5125,
			"count":459957,
			"type":"SCALAR"
		},
		{
			"bufferView":4,
			"componentType":5126,
			"count":2478,
			"max":[
				2.4160330295562744,
				-4.194732666015625,
				-0.08404802531003952
			],
			"min":[
				0.5605321526527405,
				-5.617502689361572,
				-2.781079053878784
			],
			"type":"VEC3"
		},
		{
			"bufferView":5,
			"componentType":5126,
			"count":2478,
			"type":"VEC3"
		},
		{
			"bufferView":6,
			"componentType":5126,
			"count":2478,
			"type":"VEC2"
		},
		{
			"bufferView":7,
			"componentType":5123,
			"count":7626,
			"type":"SCALAR"
		},
		{
			"bufferView":8,
			"componentType":5126,
			"count":2437,
			"max":[
				1.100924015045166,
				-4.440222263336182,
				-0.6117824912071228
			],
			"min":[
				-1.0116865634918213,
				-5.65455436706543,
				-2.9906961917877197
			],
			"type":"VEC3"
		},
		{
			"bufferView":9,
			"componentType":5126,
			"count":2437,
			"type":"VEC3"
		},
		{
			"bufferView":10,
			"componentType":5126,
			"count":2437,
			"type":"VEC2"
		},
		{
			"bufferView":11,
			"componentType":5123,
			"count":7545,
			"type":"SCALAR"
		},
		{
			"bufferView":12,
			"componentType":5126,
			"count":2269,
			"max":[
				1.1246150732040405,
				-3.0667002201080322,
				-2.12333607673645
			],
			"min":[
				-1.3740708827972412,
				-5.1926589012146,
				-4.530869960784912
			],
			"type":"VEC3"
		},
		{
			"bufferView":13,
			"componentType":5126,
			"count":2269,
			"type":"VEC3"
		},
		{
			"bufferView":14,
			"componentType":5126,
			"count":2269,
			"type":"VEC2"
		},
		{
			"bufferView":15,
			"componentType":5123,
			"count":7230,
			"type":"SCALAR"
		},
		{
			"bufferView":16,
			"componentType":5126,
			"count":30,
			"max":[
				1.25
			],
			"min":[
				0.041666666666666664
			],
			"type":"SCALAR"
		},
		{
			"bufferView":17,
			"componentType":5126,
			"count":30,
			"type":"VEC3"
		},
		{
			"bufferView":18,
			"componentType":5126,
			"count":30,
			"type":"VEC4"
		},
		{
			"bufferView":19,
			"componentType":5126,
			"count":2,
			"max":[
				1.25
			],
			"min":[
				0.041666666666666664
			],
			"type":"SCALAR"
		},
		{
			"bufferView":20,
			"componentType":5126,
			"count":2,
			"type":"VEC3"
		}
	],
	"bufferViews":[
		{
			"buffer":0,
			"byteLength":1736304,
			"byteOffset":0,
			"target":34962
		},
		{
			"buffer":0,
			"byteLength":1736304,
			"byteOffset":1736304,
			"target":34962
		},
		{
			"buffer":0,
			"byteLength":1157536,
			"byteOffset":3472608,
			"target":34962
		},
		{
			"buffer":0,
			"byteLength":1839828,
			"byteOffset":4630144,
			"target":34963
		},
		{
			"buffer":0,
			"byteLength":29736,
			"byteOffset":6469972,
			"target":34962
		},
		{
			"buffer":0,
			"byteLength":29736,
			"byteOffset":6499708,
			"target":34962
		},
		{
			"buffer":0,
			"byteLength":19824,
			"byteOffset":6529444,
			"target":34962
		},
		{
			"buffer":0,
			"byteLength":15252,
			"byteOffset":6549268,
			"target":34963
		},
		{
			"buffer":0,
			"byteLength":29244,
			"byteOffset":6564520,
			"target":34962
		},
		{
			"buffer":0,
			"byteLength":29244,
			"byteOffset":6593764,
			"target":34962
		},
		{
			"buffer":0,
			"byteLength":19496,
			"byteOffset":6623008,
			"target":34962
		},
		{
			"buffer":0,
			"byteLength":15090,
			"byteOffset":6642504,
			"target":34963
		},
		{
			"buffer":0,
			"byteLength":27228,
			"byteOffset":6657596,
			"target":34962
		},
		{
			"buffer":0,
			"byteLength":27228,
			"byteOffset":6684824,
			"target":34962
		},
		{
			"buffer":0,
			"byteLength":18152,
			"byteOffset":6712052,
			"target":34962
		},
		{
			"buffer":0,
			"byteLength":14460,
			"byteOffset":6730204,
			"target":34963
		},
		{
			"buffer":0,
			"byteLength":120,
			"byteOffset":6744664
		},
		{
			"buffer":0,
			"byteLength":360,
			"byteOffset":6744784
		},
		{
			"buffer":0,
			"byteLength":480,
			"byteOffset":6745144
		},
		{
			"buffer":0,
			"byteLength":8,
			"byteOffset":6745624
		},
		{
			"buffer":0,
			"byteLength":24,
			"byteOffset":6745632
		}
	],
	"buffers":[
		{
			"byteLength":6745656,
			"uri":"wikipediaGlobe.bin"
		}
	]
}
